<mxfile host="app.diagrams.net" modified="2023-05-16T16:12:31.173Z" agent="Mozilla/5.0 (Windows NT 10.0; Win64; x64) AppleWebKit/537.36 (KHTML, like Gecko) Chrome/108.0.0.0 Safari/537.36 Edg/108.0.1462.76" version="21.3.2" etag="jZn3qgziaUXR4TMDdZyt" type="github">
  <diagram name="Page-1" id="PaJYSTnceYQk0JfbujQb">
    <mxGraphModel>
      <root>
        <mxCell id="0" />
        <mxCell id="1" parent="0" />
      </root>
    </mxGraphModel>
  </diagram>
</mxfile>
